<?xml version="1.0" standalone="no"?>
<!DOCTYPE svg PUBLIC "-//W3C//DTD SVG 20010904//EN"
 "http://www.w3.org/TR/2001/REC-SVG-20010904/DTD/svg10.dtd">
<svg version="1.0" xmlns="http://www.w3.org/2000/svg"
 width="1702.000000pt" height="1702.000000pt" viewBox="0 0 1702.000000 1702.000000"
 preserveAspectRatio="xMidYMid meet">
<metadata>
Created by potrace 1.11, written by Peter Selinger 2001-2013
</metadata>
<g transform="translate(0.000000,1702.000000) scale(0.100000,-0.100000)"
fill="#000000" stroke="none">
<path d="M16927 16182 c3 -12 9 -25 14 -28 14 -8 11 10 -6 32 -13 18 -14 18
-8 -4z"/>
<path d="M16971 16080 c0 -8 4 -22 9 -30 12 -18 12 -2 0 25 -6 13 -9 15 -9 5z"/>
<path d="M16990 16021 c0 -6 4 -13 10 -16 6 -3 7 1 4 9 -7 18 -14 21 -14 7z"/>
<path d="M7409 15966 c-2 -2 -78 -7 -169 -11 -91 -4 -183 -8 -205 -10 -114 -7
-234 -16 -265 -20 -19 -2 -66 -7 -105 -10 -113 -11 -137 -13 -190 -20 -52 -6
-259 -33 -308 -40 -15 -2 -47 -7 -70 -10 -96 -13 -392 -67 -532 -96 -82 -17
-169 -35 -193 -40 -182 -37 -555 -140 -837 -230 -228 -73 -643 -224 -660 -240
-5 -5 -14 -9 -21 -9 -7 0 -113 -44 -236 -99 -464 -205 -852 -412 -1198 -639
-110 -73 -390 -269 -400 -282 -3 -3 -34 -28 -70 -55 -238 -181 -643 -569 -825
-790 -22 -27 -45 -53 -50 -59 -45 -45 -227 -291 -319 -431 -150 -225 -220
-346 -320 -552 -78 -158 -131 -283 -181 -423 -20 -58 -41 -114 -46 -125 -19
-46 -99 -348 -99 -375 0 -5 35 11 78 34 42 23 122 67 177 96 55 29 123 65 150
80 28 15 88 48 135 72 47 25 112 60 145 78 139 75 204 110 280 150 44 24 103
55 130 70 60 33 172 93 280 150 44 24 109 59 145 78 128 69 174 94 408 219 48
25 170 91 272 146 102 55 228 122 280 150 52 27 168 90 258 138 89 49 165 89
167 89 2 0 30 15 62 33 32 19 103 58 158 87 109 58 197 105 290 155 66 36 144
78 280 150 50 26 113 60 140 75 28 15 91 49 140 75 50 26 113 60 140 75 28 15
86 47 130 70 44 23 112 59 150 80 39 21 99 53 135 72 64 34 251 135 440 238
270 146 474 232 691 289 73 20 92 23 184 36 22 4 46 8 53 11 25 8 177 18 277
18 275 0 499 -51 723 -163 135 -68 225 -130 402 -278 233 -195 1175 -883 1930
-1408 55 -38 145 -101 200 -140 55 -38 130 -91 167 -117 38 -26 164 -115 282
-198 l214 -150 31 18 c92 56 829 501 1061 642 149 90 279 168 290 174 11 6 71
42 134 80 159 97 259 133 501 185 94 19 309 -5 445 -51 59 -20 201 -85 240
-110 125 -80 168 -121 425 -398 74 -80 237 -248 361 -375 125 -126 263 -267
306 -312 43 -44 197 -203 343 -353 146 -150 300 -309 344 -353 43 -45 199
-206 346 -357 147 -151 303 -312 346 -356 361 -373 589 -604 595 -604 5 0 19
75 44 255 12 83 20 260 19 435 -1 208 -6 293 -29 475 -2 17 -7 53 -10 80 -46
366 -164 759 -307 1019 -21 38 -38 71 -38 73 0 3 -26 46 -58 96 -32 51 -85
135 -117 187 -107 174 -331 490 -432 610 -11 14 -49 59 -83 100 -206 249 -496
536 -763 755 -241 197 -751 559 -955 678 -29 18 -64 39 -77 47 -195 126 -753
415 -1005 520 -180 75 -179 75 -245 99 -33 13 -71 27 -85 33 -65 27 -445 155
-616 208 -258 79 -557 162 -704 195 -8 2 -96 22 -195 44 -99 22 -198 43 -220
47 -22 3 -43 8 -46 10 -3 1 -34 8 -70 14 -82 13 -113 18 -174 30 -45 9 -69 13
-145 25 -14 2 -45 7 -70 10 -25 3 -52 8 -60 10 -8 2 -39 7 -69 10 -30 4 -61 8
-70 10 -9 1 -45 6 -81 10 -36 3 -72 8 -80 10 -8 2 -42 6 -75 10 -33 3 -76 8
-95 10 -19 2 -62 7 -95 10 -33 3 -82 7 -110 10 -27 3 -79 7 -115 10 -36 2
-101 7 -145 10 -44 3 -120 8 -170 11 -102 6 -1010 15 -1016 10z"/>
<path d="M6219 14126 c-2 -2 -44 -6 -93 -10 -73 -5 -155 -19 -357 -61 -38 -8
-171 -49 -264 -82 -105 -37 -200 -80 -350 -161 -49 -26 -144 -76 -210 -111
-126 -67 -203 -108 -345 -183 -47 -25 -125 -67 -175 -93 -49 -26 -121 -64
-160 -85 -38 -21 -115 -61 -170 -90 -157 -83 -244 -129 -320 -170 -38 -20
-115 -61 -170 -90 -55 -29 -131 -70 -170 -90 -38 -20 -110 -59 -160 -85 -49
-26 -121 -64 -160 -85 -38 -20 -119 -63 -180 -95 -60 -32 -137 -72 -170 -90
-33 -18 -105 -56 -160 -85 -55 -29 -131 -70 -170 -90 -102 -54 -226 -120 -340
-180 -55 -29 -122 -65 -150 -80 -27 -15 -104 -55 -170 -90 -66 -34 -142 -75
-170 -90 -58 -32 -175 -94 -330 -175 -60 -32 -132 -70 -160 -85 -27 -15 -104
-55 -170 -90 -66 -34 -142 -75 -170 -90 -120 -66 -281 -150 -430 -223 -88 -43
-188 -95 -222 -115 -65 -38 -62 -34 -79 -127 -2 -11 -7 -47 -10 -80 -4 -33 -8
-62 -10 -65 -9 -17 -19 -255 -18 -460 0 -238 10 -418 29 -540 2 -14 7 -47 10
-75 6 -46 36 -219 50 -290 3 -16 18 -75 32 -130 14 -55 26 -104 27 -110 8 -36
40 -134 53 -158 44 -87 183 -169 308 -185 101 -12 246 -3 326 21 24 8 49 14
54 15 18 4 80 23 100 32 46 21 614 181 725 205 8 2 99 24 203 49 103 25 222
53 265 62 73 15 90 19 129 28 61 14 470 92 588 111 50 8 99 17 110 19 11 2 42
7 68 10 27 4 58 9 70 12 20 3 41 7 137 20 19 3 46 7 60 9 14 2 97 14 185 25
88 11 176 23 195 26 19 2 58 7 85 10 28 2 66 6 85 9 19 2 60 7 90 10 30 3 71
8 90 10 19 2 69 7 110 11 41 3 82 7 90 9 8 2 58 6 110 10 52 3 113 8 135 11
22 2 72 6 110 9 39 3 97 7 130 9 66 6 175 13 305 22 47 3 111 7 143 9 79 5
263 15 382 20 108 5 267 13 410 20 50 2 155 7 235 10 80 3 181 8 225 10 183
10 536 24 1025 40 658 22 1764 21 2405 -2 318 -11 821 -6 1100 12 33 2 105 7
160 10 55 4 111 8 125 10 14 2 63 6 110 10 47 4 96 8 110 10 14 2 54 6 90 10
36 4 76 8 90 10 14 2 48 7 76 10 28 3 61 8 75 10 13 3 49 8 79 11 30 3 57 7
60 9 3 2 33 7 65 10 33 4 62 9 65 10 3 2 26 6 50 10 25 3 52 8 60 10 8 2 31 7
50 10 133 22 482 109 642 161 712 228 1005 517 1012 994 2 148 -16 266 -66
430 -11 36 -23 74 -28 85 -66 161 -72 171 -162 265 -185 194 -257 270 -408
431 -336 356 -408 418 -560 477 -118 46 -183 57 -330 57 -131 0 -183 -6 -295
-35 -157 -41 -309 -110 -465 -212 -74 -48 -580 -374 -785 -506 -38 -25 -92
-60 -120 -77 -27 -18 -102 -66 -165 -107 -63 -40 -139 -89 -168 -107 -29 -19
-51 -37 -50 -42 2 -4 113 -100 248 -214 135 -114 256 -216 270 -228 14 -12 50
-42 80 -67 30 -25 57 -47 60 -50 3 -3 70 -60 150 -127 80 -66 163 -137 185
-157 50 -46 123 -97 -955 664 -190 134 -367 259 -395 278 -27 20 -142 101
-255 180 -113 80 -317 224 -455 321 -137 96 -254 179 -260 184 -10 8 -340 241
-708 500 -103 73 -218 155 -256 182 -38 28 -139 100 -225 160 -141 99 -358
253 -411 291 -307 223 -421 295 -546 344 -64 26 -190 58 -253 65 -28 4 -53 8
-57 11 -9 5 -304 15 -310 10z"/>
<path d="M13910 11627 c0 -8 3 -17 6 -20 14 -13 59 -159 80 -257 28 -131 34
-300 14 -424 -77 -497 -529 -878 -1309 -1106 -41 -12 -81 -23 -90 -26 -9 -2
-34 -8 -56 -14 -64 -16 -207 -48 -245 -55 -19 -3 -42 -8 -50 -10 -8 -2 -30 -7
-47 -10 -18 -3 -45 -7 -60 -10 -176 -29 -336 -48 -498 -60 -156 -12 -301 -25
-345 -30 -19 -3 -71 -7 -115 -11 -44 -3 -91 -7 -105 -9 -14 -2 -54 -7 -90 -10
-64 -6 -111 -11 -180 -20 -19 -2 -62 -7 -95 -10 -57 -5 -92 -9 -175 -20 -19
-2 -60 -7 -90 -10 -30 -4 -66 -8 -80 -10 -14 -2 -50 -7 -80 -10 -30 -3 -66 -8
-80 -10 -14 -2 -43 -6 -65 -9 -146 -19 -203 -27 -225 -31 -33 -5 -84 -12 -145
-21 -27 -3 -57 -8 -67 -9 -9 -2 -38 -7 -65 -11 -26 -3 -57 -8 -68 -10 -11 -2
-76 -13 -145 -24 -177 -29 -174 -29 -285 -50 -55 -10 -115 -21 -132 -25 -18
-3 -79 -15 -135 -26 -57 -11 -114 -22 -128 -25 -14 -2 -36 -7 -50 -10 -14 -3
-36 -8 -50 -10 -14 -3 -43 -10 -65 -16 -22 -5 -51 -12 -65 -15 -114 -19 -659
-170 -735 -202 -177 -76 -242 -112 -312 -176 -80 -73 -108 -129 -108 -219 0
-61 5 -80 34 -134 37 -67 142 -181 231 -249 102 -77 233 -153 473 -274 245
-123 440 -229 560 -306 37 -24 69 -43 71 -43 23 0 494 -342 572 -415 6 -5 40
-35 75 -65 116 -102 282 -273 381 -395 208 -257 360 -543 429 -810 12 -44 23
-93 25 -110 3 -16 9 -52 14 -80 6 -27 12 -99 15 -160 9 -203 25 -277 77 -377
123 -232 427 -309 821 -208 243 63 620 178 787 240 41 15 127 47 190 71 692
256 1460 680 1935 1070 204 168 284 238 425 374 114 109 330 341 392 420 34
44 52 66 64 79 21 23 183 244 246 336 294 434 526 942 654 1435 12 50 25 101
28 115 30 152 37 190 42 220 3 19 7 40 9 47 3 9 15 130 19 195 1 9 -244 264
-560 585 -309 312 -653 660 -764 773 -342 348 -703 710 -706 710 -2 0 -4 -6
-4 -13z"/>
<path d="M5937 8663 c-1 0 -31 -4 -67 -7 -36 -4 -76 -9 -90 -11 -14 -2 -50 -7
-80 -10 -50 -5 -83 -9 -160 -20 -14 -2 -50 -7 -80 -10 -30 -3 -66 -8 -80 -10
-14 -2 -45 -7 -70 -10 -25 -3 -72 -10 -105 -15 -33 -5 -82 -12 -110 -15 -27
-3 -61 -8 -75 -10 -14 -3 -43 -7 -65 -11 -62 -8 -98 -14 -125 -19 -14 -2 -42
-7 -62 -10 -21 -3 -55 -8 -75 -11 -41 -6 -361 -60 -403 -67 -14 -3 -63 -12
-110 -21 -47 -8 -100 -18 -118 -21 -68 -11 -539 -109 -602 -124 -75 -19 -84
-21 -115 -27 -16 -3 -51 -11 -77 -19 -27 -8 -48 -12 -48 -9 0 3 -8 0 -17 -5
-10 -5 -31 -11 -48 -14 -81 -15 -417 -110 -624 -178 -673 -220 -1062 -478
-1109 -735 -31 -175 63 -333 328 -554 117 -97 366 -285 540 -409 63 -44 120
-85 125 -89 11 -9 191 -127 270 -177 299 -189 734 -413 1144 -587 160 -67 540
-212 651 -248 30 -9 120 -39 200 -65 365 -118 973 -277 1264 -329 16 -3 52
-10 80 -16 76 -16 87 -18 271 -50 94 -16 186 -33 205 -37 19 -3 38 -6 41 -5 3
0 42 -5 86 -13 77 -13 211 -32 298 -41 22 -2 65 -8 95 -13 97 -16 287 -7 354
17 80 29 185 97 331 214 317 253 501 552 510 827 8 245 -89 455 -314 678 -188
188 -389 321 -806 533 -303 154 -420 216 -457 242 -14 10 -29 18 -33 18 -14 0
-258 159 -360 236 -248 185 -395 362 -461 554 -29 86 -26 253 8 345 40 110
107 215 205 318 l45 48 -52 -3 c-28 -2 -52 -4 -53 -5z"/>
<path d="M3204 3708 c-26 -53 -61 -117 -135 -254 -22 -39 -39 -74 -39 -78 0
-3 33 -6 74 -6 l74 0 87 110 c49 61 90 110 92 110 7 0 23 -19 106 -122 l78
-98 74 0 c41 0 75 2 75 5 0 2 -11 24 -23 47 -24 44 -87 161 -147 276 l-33 62
-128 0 -129 0 -26 -52z"/>
<path d="M6659 3718 c-28 -56 -103 -197 -145 -275 -19 -34 -34 -64 -34 -67 0
-3 33 -6 73 -6 l73 0 89 110 c49 61 91 110 94 110 3 -1 46 -50 94 -110 l88
-110 74 0 c77 0 83 5 55 45 -6 9 -135 252 -168 318 l-13 27 -130 0 -129 0 -21
-42z"/>
<path d="M1370 2915 l0 -785 210 0 210 0 0 210 0 210 208 1 c225 0 267 3 355
25 132 32 222 99 272 199 14 30 28 62 29 72 2 10 8 36 14 58 12 49 15 91 15
225 2 224 -31 344 -117 432 -53 54 -109 84 -213 112 -90 24 -98 24 -537 26
l-446 1 0 -786z m794 407 c70 -24 86 -58 87 -188 2 -137 -10 -177 -62 -202
-36 -18 -62 -21 -220 -22 l-179 -1 0 216 0 216 163 -2 c122 0 174 -5 211 -17z"/>
<path d="M4840 2915 l0 -785 210 0 210 0 0 313 c0 255 3 314 13 314 14 0 55
-59 291 -419 l136 -208 261 0 c205 0 259 3 253 13 -9 15 -66 98 -77 112 -5 5
-64 89 -131 185 -67 96 -173 247 -234 334 -62 88 -112 162 -112 166 0 4 112
171 249 372 137 201 252 371 255 377 5 8 -64 11 -246 10 l-253 0 -95 -151
c-52 -82 -116 -182 -141 -221 -26 -40 -67 -105 -93 -144 -76 -119 -76 -118
-76 222 l0 295 -210 0 -210 0 0 -785z"/>
<path d="M8290 2915 l0 -785 210 0 210 0 0 285 0 285 299 0 299 0 0 180 1 180
-300 0 -299 0 0 140 0 140 318 2 317 3 0 178 0 177 -527 0 -528 0 0 -785z"/>
<path d="M3114 3255 c-153 -33 -227 -109 -260 -265 -18 -81 -24 -406 -10 -525
8 -70 27 -139 51 -185 20 -38 64 -90 78 -90 5 0 21 -8 35 -18 55 -37 102 -45
317 -48 276 -5 351 11 438 95 41 39 57 67 83 146 23 71 30 508 10 611 -33 166
-104 243 -256 278 -81 19 -402 20 -486 1z m357 -282 c10 -10 23 -41 28 -68 12
-66 7 -422 -7 -457 -18 -43 -57 -57 -150 -54 -131 4 -140 21 -141 299 -1 292
10 310 178 302 55 -3 79 -8 92 -22z"/>
<path d="M6556 3254 c-160 -35 -236 -129 -261 -321 -7 -56 -9 -436 -2 -468 3
-11 8 -40 12 -65 11 -64 47 -141 84 -179 37 -38 118 -77 187 -90 79 -15 401
-12 472 4 135 32 205 94 244 218 21 67 23 89 23 342 0 234 -2 278 -18 330 -42
135 -110 198 -249 229 -87 20 -399 20 -492 0z m343 -270 c18 -7 36 -25 42 -41
14 -35 19 -388 6 -461 -12 -72 -41 -90 -141 -90 -77 0 -118 15 -138 51 -9 15
-14 83 -16 227 -3 244 5 286 58 313 41 21 141 21 189 1z"/>
<path d="M9755 3264 c-116 -26 -144 -40 -188 -88 -36 -41 -60 -105 -61 -167
l-1 -51 158 0 c200 1 197 1 196 10 -10 59 27 81 134 79 65 -2 80 -5 99 -25 21
-21 23 -32 24 -152 l2 -129 -37 28 c-64 50 -93 56 -261 56 -147 0 -158 -1
-212 -27 -126 -59 -161 -131 -159 -327 1 -151 17 -207 79 -271 68 -70 122 -83
306 -78 151 4 183 13 253 72 l30 25 0 -22 c1 -74 -17 -67 181 -67 l177 0 -1
418 c0 229 -4 437 -8 462 -24 136 -109 219 -251 247 -37 7 -432 13 -460 7z
m312 -655 c32 -12 50 -56 48 -119 -2 -107 -24 -126 -146 -129 -127 -3 -159 22
-160 128 -1 67 16 106 54 120 28 11 175 11 204 0z"/>
<path d="M11234 3254 c-42 -15 -124 -88 -124 -110 0 -6 -6 -16 -13 -22 -10 -9
-13 2 -11 53 l1 65 -172 0 -172 0 0 -555 0 -555 177 0 176 0 2 363 c1 199 3
371 6 382 2 11 5 27 5 36 3 48 83 80 147 59 46 -16 58 -50 63 -192 1 -16 16
-18 166 -18 l166 0 -2 115 c-3 250 -54 354 -189 384 -64 15 -178 12 -226 -5z"/>
<path d="M12311 3258 c-53 -15 -112 -59 -143 -108 l-29 -45 1 45 c4 100 22 90
-169 90 l-168 0 0 -555 0 -555 174 0 c95 0 173 3 173 8 1 4 2 174 4 377 2 412
5 432 64 453 36 12 110 9 140 -7 39 -21 45 -74 45 -463 l0 -368 173 0 173 0 3
383 c2 265 7 390 15 409 7 15 25 34 41 42 35 18 118 15 151 -5 38 -24 39 -37
40 -471 l1 -358 176 0 175 0 -4 453 c-4 493 -7 519 -60 589 -48 63 -109 90
-216 95 -159 9 -252 -28 -309 -122 -31 -51 -38 -54 -46 -21 -11 44 -77 105
-136 125 -60 21 -208 26 -269 9z"/>
<path d="M13869 3266 c-2 -2 -22 -7 -44 -10 -61 -9 -161 -62 -194 -103 -44
-53 -58 -106 -60 -222 -3 -129 15 -186 74 -246 66 -68 139 -98 260 -110 33 -3
80 -7 105 -10 25 -3 72 -8 104 -11 88 -8 129 -31 140 -76 14 -54 -2 -99 -42
-119 -24 -13 -57 -16 -126 -15 -106 2 -143 18 -153 66 l-5 30 -184 0 c-140 0
-184 -3 -185 -12 -11 -129 75 -248 206 -283 17 -5 37 -10 45 -13 8 -3 123 -6
255 -8 196 -3 251 -1 300 12 112 30 182 84 223 174 23 49 26 67 25 175 0 103
-3 127 -23 168 -43 90 -155 149 -312 162 -29 3 -73 7 -98 10 -25 2 -72 7 -105
10 -129 12 -148 25 -148 106 0 42 5 56 27 77 25 25 32 27 120 27 85 0 97 -2
119 -23 14 -13 28 -35 31 -48 l6 -24 177 2 177 3 0 25 c-1 124 -72 225 -187
266 -44 15 -89 19 -288 21 -129 2 -237 1 -240 -1z"/>
<path d="M5471 1876 c-96 -24 -115 -43 -49 -48 43 -3 43 -3 48 -48 9 -79 4
-620 -6 -630 -8 -8 -35 -16 -65 -19 -4 -1 -9 -8 -13 -16 -5 -13 14 -15 134
-15 112 0 140 3 140 14 0 8 -16 16 -39 20 -49 8 -52 17 -52 191 -1 148 3 160
63 199 66 43 151 27 184 -35 13 -25 16 -63 15 -195 0 -89 -2 -169 -3 -176 -2
-10 20 -14 90 -16 77 -2 92 0 92 13 0 15 -10 19 -41 16 -34 -3 -40 24 -43 202
-3 152 -6 181 -23 209 -25 43 -81 74 -141 77 -63 2 -92 -9 -147 -60 l-45 -42
-1 54 c-1 84 -1 117 1 224 2 54 -1 100 -6 101 -5 1 -47 -8 -93 -20z"/>
<path d="M9105 1881 c-37 -23 -110 -102 -131 -143 -13 -26 -18 -57 -23 -146
-1 -7 -17 -20 -36 -28 -19 -8 -35 -19 -35 -24 0 -6 16 -10 35 -10 26 0 35 -4
36 -17 3 -63 -2 -341 -7 -355 -3 -11 -19 -20 -44 -24 -27 -5 -37 -10 -33 -20
4 -11 35 -14 143 -14 77 0 141 4 144 8 9 16 -10 27 -47 28 -21 1 -43 6 -48 11
-5 5 -10 92 -12 194 l-2 184 65 3 c62 3 80 12 80 40 0 8 -21 12 -73 12 l-74 0
3 96 c3 106 17 139 60 150 16 4 40 0 61 -10 20 -9 37 -15 39 -14 7 8 7 74 0
86 -11 18 -67 14 -101 -7z"/>
<path d="M5010 1858 c-92 -26 -160 -117 -160 -213 0 -61 20 -105 65 -142 33
-27 55 -36 125 -49 8 -2 43 -8 76 -14 34 -7 76 -21 93 -31 98 -59 62 -226 -55
-263 -79 -24 -186 -10 -234 31 -25 21 -30 32 -30 69 0 37 -3 44 -20 44 -18 0
-20 -7 -21 -62 0 -35 -2 -72 -4 -82 -5 -27 19 -42 87 -56 78 -17 201 -7 261
20 63 28 123 83 147 133 38 77 22 192 -32 237 -26 22 -94 46 -153 55 -106 15
-122 19 -147 32 -40 19 -60 55 -60 108 -1 50 17 83 65 119 34 25 139 28 184 6
53 -26 63 -41 63 -87 0 -36 3 -43 20 -43 15 0 20 7 21 28 2 26 2 36 10 97 4
28 1 30 -61 51 -71 23 -182 29 -240 12z"/>
<path d="M7117 1846 c-27 -21 -31 -62 -7 -86 41 -41 103 -16 103 40 0 52 -54
78 -96 46z"/>
<path d="M12805 1756 l-40 -21 3 -77 3 -76 -46 -17 c-57 -22 -58 -35 -2 -35
l43 0 -1 -181 c-2 -197 6 -231 55 -257 40 -21 111 -10 148 23 35 31 44 62 15
50 -38 -15 -79 -16 -96 -3 -31 23 -36 89 -28 345 1 20 7 22 74 25 66 3 72 5
75 26 3 21 1 22 -73 22 l-76 0 6 100 c6 112 6 112 -60 76z"/>
<path d="M6173 1589 l-63 -30 0 -45 c0 -52 21 -60 40 -14 17 41 32 51 86 55
63 5 112 -18 130 -61 17 -41 18 -84 2 -85 -45 -2 -191 -39 -228 -57 -50 -24
-80 -87 -74 -154 6 -76 54 -118 134 -118 44 0 71 11 104 42 12 11 33 29 49 40
l27 19 0 -40 0 -41 79 0 c44 0 82 4 85 9 8 12 -16 29 -36 26 -9 -2 -21 2 -26
8 -6 7 -9 82 -9 167 0 85 -3 174 -7 196 -19 107 -161 147 -293 83z m208 -239
c0 -16 1 -46 2 -66 1 -48 -28 -89 -80 -114 -57 -26 -89 -25 -118 5 -41 40 -30
118 21 152 21 14 130 48 167 52 4 1 7 -12 8 -29z"/>
<path d="M6710 1603 c-97 -22 -115 -28 -115 -38 0 -6 16 -11 35 -13 60 -6 60
-6 58 -212 -2 -104 -6 -192 -10 -196 -4 -3 -18 -8 -30 -9 -13 -1 -29 -3 -35
-4 -7 0 -13 -8 -13 -16 0 -13 23 -15 145 -15 122 0 145 2 145 15 0 8 -8 15
-17 16 -51 3 -74 7 -80 13 -11 11 -12 286 -1 317 22 64 87 85 135 45 17 -14
35 -26 40 -26 4 0 8 30 8 68 l0 67 -32 3 c-43 4 -93 -21 -123 -63 -14 -19 -28
-35 -32 -35 -4 0 -5 23 -3 50 2 28 1 49 -3 49 -4 -1 -36 -8 -72 -16z"/>
<path d="M7144 1605 c-23 -7 -59 -16 -80 -19 -22 -3 -40 -5 -41 -6 -2 0 -3 -7
-3 -15 0 -14 22 -20 61 -16 9 1 20 -6 23 -16 9 -22 9 -370 1 -383 -4 -6 -24
-13 -46 -16 -23 -4 -38 -11 -36 -18 5 -15 256 -21 271 -6 13 13 6 19 -33 22
-18 1 -37 8 -43 16 -8 9 -11 88 -11 243 1 166 -2 229 -11 228 -6 -1 -30 -7
-52 -14z"/>
<path d="M7435 1603 c-100 -25 -110 -28 -108 -38 1 -6 19 -12 39 -15 50 -7 52
-19 49 -224 -2 -156 -9 -198 -33 -194 -28 3 -52 -4 -52 -17 0 -13 22 -15 135
-15 78 0 135 4 135 9 0 13 -11 19 -45 25 -16 3 -31 10 -35 16 -4 7 -8 80 -9
164 -2 148 -1 153 22 178 72 77 197 72 228 -10 6 -15 10 -107 10 -204 l0 -178
90 0 c72 0 89 3 89 15 0 10 -10 15 -29 15 -16 0 -34 6 -40 14 -7 8 -13 79 -15
187 -2 96 -8 185 -14 199 -27 69 -146 111 -226 80 -14 -5 -46 -28 -71 -51
l-44 -41 0 39 c2 53 0 63 -8 62 -5 0 -35 -8 -68 -16z"/>
<path d="M8205 1614 c-122 -30 -187 -102 -180 -201 5 -75 36 -111 113 -135 8
-2 -5 -17 -31 -36 -61 -43 -74 -105 -28 -128 36 -18 35 -22 -12 -45 -115 -56
-83 -216 52 -264 85 -30 234 -11 306 38 119 81 143 252 42 300 -24 12 -67 16
-157 17 -136 2 -173 13 -163 49 9 34 46 58 100 64 96 11 165 64 192 147 10 32
7 81 -5 102 -3 4 17 8 44 8 35 0 54 5 65 18 10 10 17 22 17 25 0 4 -35 7 -78
7 -54 0 -90 5 -113 17 -34 17 -125 26 -164 17z m97 -61 c55 -50 63 -168 14
-209 -58 -51 -149 -35 -180 31 -20 41 -23 113 -7 143 31 58 127 77 173 35z
m109 -489 c33 -34 39 -76 18 -124 -24 -54 -51 -76 -117 -96 -126 -38 -237 28
-227 135 4 39 31 80 66 99 16 8 59 11 132 9 91 -3 111 -6 128 -23z"/>
<path d="M9335 1602 c-33 -8 -70 -16 -81 -18 -12 -2 -24 -11 -28 -19 -4 -12 3
-15 34 -15 28 0 42 -5 49 -18 9 -18 13 -338 4 -373 -3 -11 -18 -20 -44 -24
-24 -4 -39 -12 -39 -21 0 -11 27 -14 145 -14 122 0 145 2 145 15 0 9 -10 15
-22 16 -37 1 -60 7 -71 18 -12 12 -21 198 -12 266 7 61 38 103 82 111 26 5 37
1 58 -20 29 -29 54 -34 51 -11 -1 9 1 38 4 66 6 46 5 50 -17 55 -43 11 -91 -5
-128 -44 -19 -20 -35 -40 -35 -44 0 -5 -4 -8 -9 -8 -5 0 -8 21 -7 47 0 25 -3
47 -9 48 -5 1 -37 -4 -70 -13z"/>
<path d="M9861 1609 c-136 -40 -211 -182 -177 -334 14 -66 56 -122 120 -163
33 -21 55 -26 115 -29 63 -2 82 2 125 23 107 53 159 137 159 256 1 110 -51
196 -142 237 -46 20 -147 25 -200 10z m136 -47 c64 -35 103 -134 98 -254 -3
-88 -22 -130 -74 -165 -58 -39 -151 -15 -194 50 -59 91 -60 285 -2 344 41 41
120 52 172 25z"/>
<path d="M10384 1605 c-23 -7 -59 -16 -80 -19 -22 -3 -40 -5 -41 -6 -2 0 -3
-7 -3 -15 0 -13 26 -21 54 -16 4 1 15 -4 22 -10 12 -10 15 -46 14 -183 -1 -94
-4 -181 -7 -194 -4 -17 -15 -24 -44 -28 -23 -4 -39 -12 -39 -20 0 -11 27 -14
135 -14 109 0 135 3 135 14 0 8 -15 17 -35 20 -19 4 -38 15 -43 24 -4 9 -8 86
-7 170 l0 154 32 28 c67 60 164 45 190 -30 13 -38 15 -290 3 -325 -4 -11 -17
-21 -29 -21 -11 -1 -28 -2 -36 -3 -8 0 -15 -8 -15 -16 0 -13 22 -15 140 -15
120 0 139 2 134 15 -4 8 -15 16 -25 16 -34 2 -38 4 -50 16 -17 17 -22 300 -6
332 30 60 118 86 174 52 46 -29 55 -74 52 -265 l-2 -161 91 -3 c77 -2 92 0 92
13 0 10 -9 15 -27 15 -54 0 -55 4 -59 195 -5 201 -13 232 -73 269 -44 28 -118
33 -164 11 -19 -9 -49 -31 -67 -50 l-33 -34 -21 31 c-28 41 -81 68 -133 68
-50 0 -80 -11 -113 -42 -57 -52 -57 -52 -52 -3 5 50 3 51 -64 30z"/>
<path d="M11625 1609 c-26 -8 -60 -15 -113 -23 -7 -1 -17 -7 -24 -14 -13 -13
-1 -19 46 -24 41 -4 44 -24 41 -222 -2 -156 -9 -198 -33 -194 -28 3 -52 -4
-52 -17 0 -13 22 -15 135 -15 113 0 135 2 135 15 0 9 -10 16 -25 16 -42 2 -45
4 -54 17 -5 8 -9 82 -10 166 -2 148 -1 153 22 178 72 77 197 72 228 -10 6 -15
10 -107 10 -204 l0 -178 90 0 c72 0 89 3 89 15 0 14 -17 20 -46 16 -28 -3 -35
31 -38 201 -2 95 -8 184 -14 198 -27 69 -146 111 -226 80 -14 -5 -46 -28 -71
-51 l-44 -41 0 39 c2 71 5 68 -46 52z"/>
<path d="M12308 1610 c-51 -15 -107 -53 -110 -74 -10 -63 20 -88 42 -36 18 44
37 54 99 54 66 0 105 -21 120 -66 21 -60 15 -76 -31 -83 -173 -27 -250 -66
-266 -134 -26 -113 14 -179 115 -188 62 -5 54 -9 166 77 l27 22 0 -41 0 -41
78 0 c43 0 81 3 85 6 10 11 -4 33 -18 28 -7 -3 -22 -1 -33 5 -18 10 -19 21
-18 183 1 155 -1 177 -19 213 -35 70 -142 104 -237 75z m163 -250 c4 -129 3
-132 -54 -174 -98 -74 -199 -11 -157 98 13 34 51 57 129 77 85 22 81 22 82 -1z"/>
<path d="M13170 1610 c-14 -5 -51 -14 -82 -20 -38 -8 -58 -16 -58 -26 0 -14 9
-17 47 -14 12 0 26 -7 31 -17 5 -10 10 -88 11 -173 0 -85 3 -165 5 -177 13
-65 65 -103 143 -103 69 0 94 11 154 67 l50 47 -3 -45 -3 -44 97 -3 c84 -2 97
-1 92 13 -4 8 -18 15 -34 15 -52 0 -54 12 -53 261 0 126 -2 229 -4 229 -3 0
-28 -7 -56 -15 -44 -12 -79 -19 -119 -24 -3 -1 -5 -9 -4 -18 2 -14 11 -17 38
-15 26 3 37 -1 42 -14 4 -9 7 -77 7 -151 0 -128 -1 -135 -26 -167 -26 -34 -87
-66 -126 -66 -11 0 -35 6 -54 14 -47 20 -54 55 -52 269 0 108 -3 182 -8 183
-6 1 -21 -2 -35 -6z"/>
<path d="M13825 1604 c-44 -12 -83 -20 -107 -23 -5 -1 -8 -8 -8 -16 0 -16 8
-18 51 -15 19 1 28 -5 32 -21 8 -29 4 -376 -5 -384 -7 -7 -32 -13 -60 -14 -10
-1 -18 -8 -18 -16 0 -13 23 -15 145 -15 122 0 145 2 145 15 0 9 -9 15 -22 16
-31 1 -71 8 -76 14 -10 10 -11 274 -2 306 13 43 37 67 77 75 26 5 37 1 58 -21
37 -36 51 -27 54 36 1 29 4 56 7 61 8 12 -43 21 -80 14 -31 -6 -106 -68 -106
-88 0 -4 -4 -8 -9 -8 -5 0 -8 23 -7 50 3 55 5 54 -69 34z"/>
<path d="M14283 1592 c-58 -29 -99 -66 -119 -109 -15 -31 -34 -139 -28 -158 1
-5 5 -26 7 -45 17 -131 127 -210 273 -197 90 9 164 49 164 89 0 11 -3 18 -7
16 -123 -63 -216 -58 -282 17 -25 29 -61 138 -49 150 2 2 69 5 150 6 211 3
208 2 208 53 0 65 -18 113 -55 149 -64 62 -174 74 -262 29z m162 -36 c32 -21
55 -72 55 -120 l0 -35 -124 2 c-69 1 -128 6 -132 9 -8 9 14 98 30 120 33 45
121 57 171 24z"/>
</g>
</svg>
